<svg width="316" height="263" viewBox="0 0 316 263" fill="none" xmlns="http://www.w3.org/2000/svg">
<path d="M84.6192 192.495C75.4198 200.051 67.0964 218.094 64.0847 226.171C63.5371 228.498 62.0313 234.303 60.3885 238.902C58.8203 243.293 55.135 255.771 53.2555 262.135L53 263H288C287.179 248.489 284.214 215.904 279.286 202.762C274.358 189.62 264.912 182.227 260.805 180.174C266.281 175.793 278.875 162.596 285.446 144.855C293.66 122.677 278.465 89.0007 277.233 86.5366C276.001 84.0724 275.179 78.3228 271.072 60.6631C266.965 43.0035 258.341 36.4324 253.002 34.7897C248.731 33.4755 236.711 36.98 231.235 38.8966C227.265 36.7062 217.026 31.7506 207.826 29.4507C196.327 26.5759 179.489 27.808 177.435 27.808C175.382 27.808 163.882 17.9514 154.436 10.9697C144.991 3.98798 129.384 0.702465 122.403 3.1666C115.421 5.63074 114.6 16.3087 114.6 27.808C114.6 39.3073 118.706 51.2173 117.064 52.8601C115.421 54.5028 102.279 68.0556 99.8147 83.6618C97.3506 99.268 94.0651 100.5 88.3154 108.303C82.5658 116.106 78.0482 121.035 80.5123 141.98C82.4836 158.736 96.9399 171.139 103.922 175.246C101.321 177.847 93.8187 184.938 84.6192 192.495Z" fill="#FEFEFE"/>
<path d="M84.6184 192.495C93.8179 184.938 101.32 177.847 103.921 175.246C96.9391 171.139 82.4829 158.736 80.5115 141.98C79.2082 130.901 79.8581 124.304 81.6104 119.392C83.171 115.017 85.6061 111.979 88.3146 108.303C94.0643 100.5 97.3498 99.268 99.814 83.6618C102.278 68.0556 115.42 54.5028 117.063 52.8601C118.706 51.2173 114.599 39.3073 114.599 27.808C114.599 16.3087 115.42 5.63074 122.402 3.1666C129.384 0.702465 144.99 3.98798 154.436 10.9697C163.882 17.9514 175.381 27.808 177.434 27.808C179.488 27.808 196.326 26.5759 207.825 29.4507C217.025 31.7506 227.265 36.7062 231.235 38.8966C236.711 36.98 248.73 33.4755 253.001 34.7897C258.34 36.4324 266.965 43.0035 271.072 60.6631C275.178 78.3228 276 84.0724 277.232 86.5366C278.464 89.0007 293.66 122.677 285.446 144.854C278.875 162.596 266.28 175.793 260.804 180.174C264.911 182.227 274.357 189.62 279.285 202.762C280.381 207.416 282.653 217.629 282.982 221.243C283.393 225.76 283.393 231.921 279.285 234.385C275.178 236.849 265.322 246.295 263.269 246.706C261.215 247.116 255.876 240.135 246.43 229.046C236.985 217.957 241.502 201.119 244.377 192.495C246.158 187.151 252.324 183.433 257.113 181.456C244.859 185.106 222.259 186.524 206.594 169.085C189.18 149.701 188.66 144.854 190.577 144.854C192.904 144.854 198.133 143.705 200.433 139.105C203.308 133.355 202.076 121.445 200.433 114.874C198.79 108.303 193.04 95.5717 177.434 98.4466C169.975 99.8206 166.934 100.97 166.015 101.789C166.156 102.216 166.266 102.609 166.346 102.964C165.74 102.744 165.395 102.341 166.015 101.789C164.463 97.1135 159.087 88.4792 147.044 83.6618C133.901 78.4049 126.235 86.6735 124.045 91.4648C123.497 88.3162 121.334 81.444 117.063 79.1441C112.792 76.8443 106.522 84.7569 103.921 89.0007C102.826 91.7386 100.471 98.3644 99.814 102.964C99.1571 107.564 100.636 113.916 101.457 116.517C101.046 118.433 98.8286 122.431 93.2432 123.088C87.6578 123.745 83.1607 120.898 81.6104 119.392C79.8581 124.304 79.2082 130.901 80.5115 141.98C82.4829 158.736 96.9391 171.139 103.921 175.246L117.885 185.513C116.516 190.03 113.367 199.476 111.724 201.119C109.671 203.172 103.921 199.066 99.814 199.066C95.7071 199.066 90.7791 207.69 84.6184 213.029C78.4578 218.368 72.7087 210.976 75.9943 205.637C78.6227 201.365 82.8389 195.096 84.6184 192.495Z" fill="#D9D9D9"/>
<path d="M238.217 93.1075C245.445 101.65 250.811 107.071 252.591 108.714C253.686 104.744 255.958 95.4896 256.287 90.2328C256.698 83.6617 257.519 49.5745 246.02 46.2889C236.82 43.6605 214.807 56.9669 204.951 63.9486C211.385 62.032 224.91 59.0203 227.539 62.3058C230.167 65.5913 222.337 70.2458 218.093 72.1624C221.105 72.1624 227.457 72.6552 228.771 74.6265C230.085 76.5978 226.307 79.0072 224.253 79.9655C225.896 80.7869 230.988 84.5652 238.217 93.1075Z" fill="#F9B3AC"/>
<path d="M122.402 27.3972C122.402 34.9539 124.319 42.0452 125.277 44.6462L126.509 43.4141L133.491 44.6462C132.122 41.9083 129.63 36.2681 130.616 35.611C131.602 34.9539 136.503 38.6228 138.83 40.5393C137.187 35.611 133.573 24.5224 132.259 19.5941C130.616 13.4338 125.277 12.2017 123.634 12.2017C121.991 12.2017 122.402 17.9514 122.402 27.3972Z" fill="#F9B3AC"/>
<path d="M124.866 136.641C123.881 135.327 123.634 132.26 123.634 130.891V130.07C124.045 129.659 126.016 129.248 130.616 130.891C135.216 132.534 136.092 134.861 135.955 135.819C135.681 136.093 134.969 136.887 134.312 137.873C133.655 138.858 129.384 139.379 127.33 139.516C126.92 139.105 125.852 137.955 124.866 136.641Z" fill="#F9B3AC"/>
<path d="M66.548 180.174C65.3159 176.478 61.8661 167.771 57.9235 162.514C53.9809 157.257 49.4359 152.11 47.6562 150.193" stroke="#232E53" stroke-width="3.28552" stroke-linecap="round" stroke-linejoin="round"/>
<path d="M53.8167 172.781C52.5846 171.412 49.217 168.1 45.6029 165.8C41.9888 163.5 38.895 161.556 37.7998 160.871" stroke="#232E53" stroke-width="3.28552" stroke-linecap="round" stroke-linejoin="round"/>
<path d="M266.966 249.58C268.061 247.938 271.319 243.913 275.59 240.956C279.861 237.999 285.31 236.986 287.5 236.849" stroke="#232E53" stroke-width="3.28552" stroke-linecap="round" stroke-linejoin="round"/>
<path d="M63.2623 227.403C63.2623 229.374 62.1671 229.867 61.6196 229.867L54.6378 233.153C54.5009 231.236 54.145 227.157 53.8165 226.171C53.4879 225.185 41.0851 223.296 34.9247 222.475C37.9364 220.969 44.042 217.711 44.3706 216.725C44.6991 215.74 38.2102 206.458 34.9247 201.94L31.2285 194.137L33.6927 193.316L61.6196 208.922L63.2623 198.244C64.3575 199.887 66.7942 203.501 67.7799 204.815C69.012 206.458 69.4227 211.797 69.012 212.618C68.6013 213.44 66.1371 214.261 63.2623 217.547C60.3875 220.832 63.2623 224.939 63.2623 227.403Z" fill="#FCED90"/>
<path d="M117.473 206.458C116.159 204.158 115.009 202.762 114.599 202.351L111.313 189.62L125.687 199.476L133.08 190.852L133.49 199.887L136.776 202.762L144.99 202.351L136.776 209.743C134.585 208.648 129.055 207.115 124.455 209.743C118.705 213.029 119.116 209.333 117.473 206.458Z" fill="#FCED90"/>
<path d="M159.364 226.582C159.364 227.896 157.447 227.951 156.489 227.814L154.846 228.225L149.918 226.992L154.846 220.421L148.275 214.261L147.043 211.386L155.667 209.333L156.078 199.476C159.09 202.488 165.442 208.758 166.756 209.743C168.399 210.976 164.292 212.618 161.006 215.904C157.721 219.189 159.364 224.939 159.364 226.582Z" fill="#FCED90"/>
<path d="M202.486 202.351C196.244 200.708 191.398 205.774 189.755 208.511L177.434 201.94L185.648 199.476L190.165 197.012L191.808 177.299L206.593 191.673L216.86 186.745V199.066L222.199 198.655L223.021 200.298C220.42 203.72 215.053 210.565 214.396 210.565C213.575 210.565 210.289 204.405 202.486 202.351Z" fill="#FCED90"/>
<path d="M243.555 229.046C243.555 225.76 238.627 221.38 236.163 219.6L249.715 202.762L248.483 214.261H254.644L273.946 201.94L260.804 223.296L270.25 226.171L262.858 232.331L260.393 235.617L264.5 239.724L262.036 240.135C259.572 239.998 254.315 239.724 253.001 239.724C251.358 239.724 250.126 237.26 248.483 236.028C246.841 234.796 243.555 233.153 243.555 229.046Z" fill="#FCED90"/>
<path d="M255.465 239.724H265.322C263.542 238.355 259.983 235.453 259.983 234.795C259.983 233.974 271.071 227.814 270.66 226.582C270.25 225.35 263.268 226.171 261.625 224.118C259.983 222.064 267.786 210.565 275.589 203.172C283.392 195.78 300.641 180.174 275.589 199.887C250.537 219.6 247.662 216.314 248.894 210.976C250.126 205.637 252.59 197.012 244.787 207.279C238.545 215.493 236.436 218.642 236.163 219.189M217.271 208.922C219.735 206.184 224.335 200.38 223.021 199.066C221.378 197.423 219.735 201.119 217.271 199.066C214.807 197.012 218.914 188.798 217.271 187.156C215.628 185.513 211.111 191.673 206.183 191.262C201.254 190.852 193.451 176.478 191.808 176.478C190.166 176.478 193.04 195.369 189.344 198.244C185.648 201.119 172.095 200.708 179.898 203.994C186.141 206.622 188.797 208.374 189.344 208.922M165.935 208.922C163.197 206.458 157.228 200.873 155.257 198.244C152.793 194.959 158.131 208.511 155.257 209.743C152.382 210.976 142.936 209.333 148.275 214.261C153.614 219.189 154.846 217.547 154.436 220.421C154.025 223.296 149.097 226.582 149.918 227.403C150.575 228.06 154.299 228.225 156.078 228.225M137.597 210.154C140.335 207.827 145.729 202.926 145.401 201.94C144.99 200.708 139.651 203.583 135.544 202.762C131.437 201.94 135.133 192.495 133.901 190.441C132.669 188.388 130.616 199.066 125.277 199.066C119.938 199.066 112.956 188.798 110.903 188.798C108.849 188.798 114.599 199.887 114.599 201.94M67.7802 204.815L62.4412 195.369C62.715 199.887 62.934 208.922 61.6198 208.922C59.9771 208.922 22.1936 182.227 33.2822 199.066C44.3708 215.904 44.7816 215.493 43.9602 217.957C43.1388 220.421 25.8898 222.475 39.0319 223.707C52.174 224.939 54.6381 226.171 54.6381 228.225C54.6381 230.278 53.406 235.617 56.6916 232.742C59.32 230.442 60.5247 229.867 60.7985 229.867" stroke="#232E53" stroke-width="3.28552" stroke-linecap="round" stroke-linejoin="round"/>
<path d="M62.442 247.527L49.7106 252.455L48.4785 244.241L58.7458 241.367L62.442 247.527Z" fill="#D9D9D9"/>
<path d="M71.4771 250.402L68.6023 256.973L84.2085 257.794L81.3337 249.58L71.4771 250.402Z" fill="#D9D9D9"/>
<path d="M91.1903 252.455L88.7261 256.973L87.9047 258.616H103.511L101.457 254.098L91.1903 252.455Z" fill="#D9D9D9"/>
<path d="M124.045 253.277L108.85 257.794L110.082 249.58L119.939 246.706L124.045 253.277Z" fill="#D9D9D9"/>
<path d="M143.348 253.277L128.974 248.759L134.313 241.367L143.348 245.474V253.277Z" fill="#D9D9D9"/>
<path d="M150.74 251.223L147.044 258.616H164.293L159.775 251.223H150.74Z" fill="#D9D9D9"/>
<path d="M181.542 249.58L168.811 254.919L167.579 247.116L175.382 243.831L181.542 249.58Z" fill="#D9D9D9"/>
<path d="M185.649 250.812L182.363 257.384H195.916V253.687L185.649 250.812Z" fill="#D9D9D9"/>
<path d="M202.898 249.58L199.202 257.384H213.165L210.29 249.58H202.898Z" fill="#D9D9D9"/>
<path d="M217.683 252.866L216.04 257.384L215.219 258.205H230.414L228.361 252.866H217.683Z" fill="#D9D9D9"/>
<path d="M235.753 244.241L234.932 251.223L250.949 247.938L245.61 242.599L235.753 244.241Z" fill="#D9D9D9"/>
<path d="M62.442 247.527L49.7106 252.455L48.4785 244.241L58.7458 241.367L62.442 247.527Z" stroke="#232E53" stroke-width="2.46414" stroke-linecap="round" stroke-linejoin="round"/>
<path d="M71.4771 250.402L68.6023 256.973L84.2085 257.794L81.3337 249.58L71.4771 250.402Z" stroke="#232E53" stroke-width="2.46414" stroke-linecap="round" stroke-linejoin="round"/>
<path d="M91.1903 252.455L88.7261 256.973L87.9047 258.616H103.511L101.457 254.098L91.1903 252.455Z" stroke="#232E53" stroke-width="2.46414" stroke-linecap="round" stroke-linejoin="round"/>
<path d="M124.045 253.277L108.85 257.794L110.082 249.58L119.939 246.706L124.045 253.277Z" stroke="#232E53" stroke-width="2.46414" stroke-linecap="round" stroke-linejoin="round"/>
<path d="M143.348 253.277L128.974 248.759L134.313 241.367L143.348 245.474V253.277Z" stroke="#232E53" stroke-width="2.46414" stroke-linecap="round" stroke-linejoin="round"/>
<path d="M150.74 251.223L147.044 258.616H164.293L159.775 251.223H150.74Z" stroke="#232E53" stroke-width="2.46414" stroke-linecap="round" stroke-linejoin="round"/>
<path d="M181.542 249.58L168.811 254.919L167.579 247.116L175.382 243.831L181.542 249.58Z" stroke="#232E53" stroke-width="2.46414" stroke-linecap="round" stroke-linejoin="round"/>
<path d="M185.649 250.812L182.363 257.384H195.916V253.687L185.649 250.812Z" stroke="#232E53" stroke-width="2.46414" stroke-linecap="round" stroke-linejoin="round"/>
<path d="M202.898 249.58L199.202 257.384H213.165L210.29 249.58H202.898Z" stroke="#232E53" stroke-width="2.46414" stroke-linecap="round" stroke-linejoin="round"/>
<path d="M217.683 252.866L216.04 257.384L215.219 258.205H230.414L228.361 252.866H217.683Z" stroke="#232E53" stroke-width="2.46414" stroke-linecap="round" stroke-linejoin="round"/>
<path d="M235.753 244.241L234.932 251.223L250.949 247.938L245.61 242.599L235.753 244.241Z" stroke="#232E53" stroke-width="2.46414" stroke-linecap="round" stroke-linejoin="round"/>
<path d="M37.3895 109.125L53.4064 135.819L39.8537 150.193L22.194 160.461L4.53436 144.855L2.8916 129.248L22.194 110.357L37.3895 109.125Z" fill="#D9D9D9"/>
<path d="M292.839 226.582L296.535 244.652L309.677 243.42L314.605 237.67L312.552 226.582L305.57 221.654L292.839 226.582Z" fill="#D9D9D9"/>
<path d="M292.839 227.403L296.124 245.063M292.839 227.403L305.981 222.064L312.552 226.582M292.839 227.403L301.463 229.867M296.124 245.063L309.266 243.42L314.605 237.67M296.124 245.063L303.517 237.67M314.605 237.67L312.552 226.582M314.605 237.67H303.517M312.552 226.582L301.463 229.867M301.463 229.867L303.517 237.67" stroke="#232E53" stroke-width="1.5" stroke-linejoin="round"/>
<path d="M21.3727 161.693C26.0272 158.818 36.404 152.329 40.6751 149.372C44.9463 146.415 51.7638 139.105 54.6386 135.819M21.3727 161.693L18.4979 145.676M21.3727 161.693L5.35583 146.908L2.07031 128.427M54.6386 135.819L38.211 129.659M54.6386 135.819L37.3896 109.125L23.4262 109.946M38.211 129.659L18.4979 145.676M38.211 129.659L23.4262 109.946M18.4979 145.676L2.07031 128.427M2.07031 128.427L23.4262 109.946" stroke="#232E53" stroke-width="2.29" stroke-linejoin="round"/>
<path d="M126.509 128.838C125.14 129.248 122.731 130.891 124.045 134.177C125.359 137.462 126.783 139.105 127.331 139.516M127.331 139.516C126.783 140.885 125.688 144.033 125.688 145.676C125.688 146.226 125.811 147.281 125.995 148.551M127.331 139.516C127.468 139.789 129.713 139.926 132.67 138.283C135.627 136.641 135.682 135.682 135.956 135.409M125.995 148.551C126.36 151.074 127.788 153.62 128.152 155.532L125.995 148.551ZM125.995 148.551L118.296 152.247" stroke="#232E53" stroke-width="2.46414" stroke-linecap="round" stroke-linejoin="round"/>
<path d="M154.847 122.267C156.49 113.095 164.539 95.4896 183.595 98.4466C202.651 101.404 203.308 121.856 201.255 131.712C201.255 131.712 185.238 128.024 173.328 128.024C161.418 128.024 153.615 131.712 153.615 131.712C154.71 137.325 161.172 148.304 178.256 147.319C195.341 146.333 200.707 139.789 201.255 136.641M98.9932 105.839C99.1301 110.083 100.964 119.31 107.207 122.267C113.449 125.224 119.391 119.939 121.581 116.928C119.938 112.418 113.696 106.011 110.082 101.74C106.468 97.4689 102.142 95.1611 101.868 93.5183C104.058 86.1259 110.575 73.2302 119.117 80.7869C127.659 88.3436 125.14 104.744 122.813 111.999" stroke="#232E53" stroke-width="3" stroke-linecap="round" stroke-linejoin="round"/>
<path d="M184.416 139.926C184.745 136.312 182.774 130.762 181.952 129.667H168.81L154.846 132.123C155.942 134.724 159.282 140.748 163.882 144.033C168.481 147.319 177.298 147.045 181.131 146.497C182.089 145.813 184.088 143.54 184.416 139.926Z" fill="#232E53"/>
<path d="M103.921 109.946C102.607 112.574 103.373 117.065 103.921 118.981C105.564 120.35 109.753 123.088 113.367 123.088C116.981 123.088 120.349 118.981 121.581 116.928L111.724 104.615C110.629 104.752 105.235 107.317 103.921 109.946Z" fill="#232E53"/>
<path d="M184.416 139.926C184.745 136.312 182.774 130.762 181.952 129.667H168.81L154.846 132.123C155.942 134.724 159.282 140.748 163.882 144.033C168.481 147.319 177.298 147.045 181.131 146.497C182.089 145.813 184.088 143.54 184.416 139.926Z" stroke="#232E53" stroke-width="3.28552" stroke-linecap="round" stroke-linejoin="round"/>
<path d="M103.921 109.946C102.607 112.574 103.373 117.065 103.921 118.981C105.564 120.35 109.753 123.088 113.367 123.088C116.981 123.088 120.349 118.981 121.581 116.928L111.724 104.615C110.629 104.752 105.235 107.317 103.921 109.946Z" stroke="#232E53" stroke-width="3.28552" stroke-linecap="round" stroke-linejoin="round"/>
<path d="M86.6724 244.241C84.7558 243.831 80.5941 242.352 79.2799 239.724C77.9657 237.095 77.0896 235.343 76.8158 234.796C72.2982 233.153 64.0023 227.978 66.9593 220.421C69.9162 212.865 77.7742 217.82 81.3335 221.243M98.1718 230.278C97.7611 231.784 96.2005 234.796 93.2435 234.796C89.5473 234.796 84.2083 233.974 82.9763 227.814C81.7442 221.654 84.2083 217.957 87.9045 216.315C90.8615 215 92.6959 215.219 93.2435 215.493M103.511 227.814C98.8563 225.897 90.7794 219.272 95.7076 208.101C101.868 194.137 115.831 213.85 115.831 214.261M120.349 218.779C121.581 215.767 125.606 210.565 131.848 213.85C139.651 217.957 137.021 226.286 135.134 230.689C134.364 232.486 132.149 233.384 129.795 233.564M121.581 224.939C120.76 226.992 120.604 231.628 125.688 233.153C126.92 233.522 128.383 233.673 129.795 233.564M129.795 233.564C130.069 234.659 130.123 237.26 128.152 238.902C126.181 240.545 123.498 242.051 122.402 242.599" stroke="#232E53" stroke-width="3.28552" stroke-linecap="round" stroke-linejoin="round"/>
<path d="M174.149 238.492C173.465 237.123 171.932 234.303 171.274 233.974C170.453 233.563 160.596 229.867 163.882 220.421C166.51 212.865 175.381 217.273 179.488 220.421M194.273 232.331C191.124 234.932 183.677 238.656 179.078 232.742C173.328 225.35 185.649 216.725 187.702 215.904C189.345 215.247 191.946 214.535 193.041 214.261M199.612 227.403C196.19 223.981 190.659 215.493 195.916 208.922C201.173 202.351 210.701 212.481 214.808 218.368M227.128 233.974C224.938 237.397 219.079 243.174 213.165 238.902C205.772 233.563 213.576 223.707 218.504 221.653C223.432 219.6 229.592 220.832 232.878 225.76C235.506 229.703 236.711 235.891 236.985 238.492" stroke="#232E53" stroke-width="3.28552" stroke-linecap="round"/>
<ellipse cx="103.885" cy="218.289" rx="3.69621" ry="5.33897" transform="rotate(-35.8949 103.885 218.289)" fill="#F9B3AC"/>
<ellipse cx="202.451" cy="219.932" rx="3.69621" ry="5.33897" transform="rotate(-35.8949 202.451 219.932)" fill="#F9B3AC"/>
<ellipse cx="170.509" cy="227.643" rx="2.73479" ry="3.27018" transform="rotate(-46.6542 170.509 227.643)" fill="#F9B3AC"/>
<ellipse cx="75.4701" cy="227.19" rx="2.76137" ry="3.98864" transform="rotate(-48.2861 75.4701 227.19)" fill="#F9B3AC"/>
<path d="M111.724 241.777C109.424 243.749 102.278 243.42 98.9928 243.009C96.9401 242.599 97.0215 241.12 97.3501 240.135C97.7608 238.902 99.8142 233.974 103.51 233.563C107.207 233.153 108.849 235.206 110.492 236.028C112.135 236.849 114.599 239.313 111.724 241.777Z" fill="#F9B3AC"/>
<path d="M209.737 244.679C206.699 246.96 197.78 245.971 193.701 245.191C191.165 244.511 191.387 242.667 191.878 241.46C192.491 239.951 195.461 233.948 200.12 233.733C204.78 233.518 206.852 235.828 208.235 237.67C209.468 239.313 213.535 241.827 209.737 244.679Z" fill="#F9B3AC"/>
<path d="M71.5 211.5C73.1428 207.667 79.0336 199.148 84.619 192.905C90.2044 186.663 98.7193 179.626 102.279 176.888M123.635 187.156C114.736 185.376 94.4755 175.985 84.619 152.658C72.2983 123.499 81.7442 115.696 86.6724 111.178C91.6007 106.66 94.8572 102.803 96.5 95C98.1428 87.1969 100.34 72.8924 106.5 65.5C111.428 59.5861 115.968 53.9552 117.885 52.4493C116.516 46.289 114.189 31.3399 115.831 20.8262C117.885 7.68414 118.405 -4.73106 144.99 6.45208C166.5 15.5 170.5 24.5 175 28C181.297 27.7262 199.612 27.4794 211.111 31.0935C222.611 34.7075 229.045 38.349 230.825 39.7179M199.612 56.5562C206.046 52.7231 221.05 44.3177 229.592 41.3607C240.27 37.6645 254.054 29.2587 263 43C271.5 56.0562 273.679 71.6076 274.5 79C275.157 84.9139 273.81 96.9407 273.536 102.143" stroke="#232E53" stroke-width="3" stroke-linecap="round" stroke-linejoin="round"/>
<path d="M252.18 111.589C253.959 105.291 257.19 89.0829 255.876 74.6266C254.233 56.5562 255.054 42.1821 237.806 47.1104C224.006 51.053 210.152 60.2524 204.95 64.3593C211.111 61.7583 224.253 57.624 227.538 61.8952C230.824 66.1664 222.61 70.7935 218.092 72.5731C220.83 72.0255 226.717 71.5875 228.36 74.2159C230.002 76.8443 225.211 79.9655 222.61 81.1976M123.634 12.2017C125.413 11.3804 129.712 12.1196 132.669 21.6476C136.365 33.5576 137.597 38.0752 140.883 42.5928C143.511 46.2068 145.811 49.3007 146.632 50.3959C142.936 45.1938 134.722 35.0361 131.437 36.0217C128.151 37.0074 132.806 43.8248 135.544 47.1104C133.353 45.3307 128.316 42.1821 125.687 43.8248C123.059 45.4676 126.235 48.89 128.151 50.3959" stroke="#232E53" stroke-width="3" stroke-linecap="round" stroke-linejoin="round"/>
<path d="M274.768 82.4297C279.97 88.8638 289.799 107.482 287.499 130.48C284.932 156.156 271.45 173.068 262.5 179.826M246.02 187.156C247.115 186.608 251 183 257.108 181.5C258.089 181.259 261.429 180.635 262.5 179.826M262.5 179.826C266.881 182.158 274.111 187.895 278.053 199.066C281.996 210.236 283.255 220.695 283.392 224.528" stroke="#232E53" stroke-width="3" stroke-linecap="round" stroke-linejoin="round"/>
<path d="M196.326 136.23C196.326 153.186 184.028 166.621 169.221 166.621C154.414 166.621 142.115 153.186 142.115 136.23C142.115 119.274 154.414 105.839 169.221 105.839C184.028 105.839 196.326 119.274 196.326 136.23Z" stroke="#232E53" stroke-width="3.28552"/>
<path d="M120.759 109.946C120.759 118.506 118.399 126.183 114.668 131.674C110.931 137.173 105.941 140.337 100.636 140.337C95.3306 140.337 90.3399 137.173 86.6032 131.674C82.8724 126.183 80.5119 118.506 80.5119 109.946C80.5119 101.385 82.8724 93.7084 86.6032 88.2178C90.3399 82.7185 95.3306 79.5549 100.636 79.5549C105.941 79.5549 110.931 82.7185 114.668 88.2178C118.399 93.7084 120.759 101.385 120.759 109.946Z" stroke="#232E53" stroke-width="3.28552"/>
<path d="M140.489 131.123C140.617 132.022 141.45 132.646 142.348 132.517C143.246 132.389 143.87 131.557 143.742 130.659L140.489 131.123ZM119.983 123.3C121.036 121.999 122.988 120.144 125.32 118.901C127.654 117.658 130.143 117.137 132.485 118.048L133.676 114.986C130.103 113.597 126.569 114.513 123.776 116.001C120.982 117.49 118.703 119.659 117.429 121.233L119.983 123.3ZM132.485 118.048C134.903 118.988 136.78 121.213 138.149 123.879C139.505 126.521 140.237 129.359 140.489 131.123L143.742 130.659C143.446 128.59 142.618 125.391 141.072 122.379C139.538 119.391 137.172 116.345 133.676 114.986L132.485 118.048Z" fill="#232E53"/>
<rect x="195.835" y="142.962" width="10.7025" height="8.24575" rx="3.28552" transform="rotate(21.5202 195.835 142.962)" fill="#232E53"/>
<rect x="74.9629" y="90.7385" width="10.0927" height="8.24575" rx="3.28552" transform="rotate(21.5202 74.9629 90.7385)" fill="#232E53"/>
<path d="M239.039 144.033C248.238 140.748 266.692 130.891 274.769 126.373H284.215C288.321 126.373 296.125 123.909 295.714 121.035C295.303 118.16 287.089 117.749 282.161 117.749C277.233 117.749 253.413 132.123 245.199 135.819C236.985 139.516 205.773 145.265 206.594 150.193C207.415 155.122 227.539 148.14 239.039 144.033Z" fill="#232E53"/>
<path d="M201.255 167.032L214.807 175.656M202.076 162.103C206.183 162.925 215.136 164.814 218.093 165.8C221.05 166.785 224.253 168.127 225.485 168.675M202.076 157.997C208.236 158.133 221.05 158.489 223.021 158.818M78.4585 123.088L65.3164 119.392M80.1012 118.16C77.6371 116.517 71.9696 112.985 69.0126 111.999M83.3868 112.821L71.8874 105.839" stroke="#232E53" stroke-width="2.46414" stroke-linecap="round"/>
</svg>
