<svg fill="none" height="236" viewBox="0 0 305 236" width="305" xmlns="http://www.w3.org/2000/svg"><path d="m15.6131 171.896c-9.41566-2.354-9.41566-13.339-8.23871-18.537 2.74621-3.335 10.35721-10.887 18.83121-14.418 10.5926-4.413 36.4856-3.53 39.1338 0 2.6481 3.531 4.7078 6.179 4.7078 12.358s-2.9424 12.064-13.535 17.655c-10.5926 5.59-29.1296 5.885-40.8991 2.942z" fill="#6b8ede"/><path d="m15.6131 171.896c-9.41566-2.354-9.41566-13.339-8.23871-18.537 2.74621-3.335 10.35721-10.887 18.83121-14.418 10.5926-4.413 36.4856-3.53 39.1338 0 2.6481 3.531 4.7078 6.179 4.7078 12.358s-2.9424 12.064-13.535 17.655c-10.5926 5.59-29.1296 5.885-40.8991 2.942zm0 0c-.1962-1.765-.1177-6.12 1.7654-9.415 1.8831-3.296 4.3155-5.885 5.2963-6.768" stroke="#232e53" stroke-width="1.76543"/><rect fill="#232e53" height="6.94854" rx=".588477" transform="matrix(.912055 .4100679 -.4100679 .912055 66.234545 6.557111)" width="3.22142" x="17.8301" y="157.697"/><path d="m221.579 153.947c-15.006 3.531-52.904 10.122-84.446 8.239-39.4282-2.354-56.1998-5.591-66.7924-16.477-2.572-2.644-4.294-5.305-5.3555-7.945-.2745 6.375-2.3536 19.302-8.4737 20.008-6.1202.707-8.4349-3.432-8.8272-5.59-2.6481 3.138-9.2391 9.357-14.4177 9.121-5.1786-.235-6.6694-4.217-6.7675-6.179-2.3539 1.766-8.0621 5.002-12.0638 3.825-4.0016-1.177-4.4135-5.002-4.1193-6.767-1.3731 1.079-4.82549 2.001-7.65018-2.943-3.530864-6.179 7.35598-21.185 23.83328-34.425 13.1819-10.593 36.2025-10.299 46.065-8.828 2.4847-6.9126 3.9348-14.3921 4.5441-20.8906.7061-7.5325 5.002-15.3004 7.0617-18.2428-3.0405-9.1214-7.5914-30.895-1.4712-45.0185 7.6502-17.65429 10.0041-17.36005 15.8889-16.18309 4.7075.94156 26.2855 19.41979 36.4855 28.54119 6.669-1.6674 22.362-4.8256 31.778-4.1194 11.769.8827 23.833 6.4733 29.718 0 5.885-6.4732 27.658-28.2469 39.428-27.95266 11.769.29424 20.891 47.07816 20.597 59.73046-.295 12.6522-2.354 19.4197 0 23.5391 2.354 4.1193 6.179 10.8868 8.238 19.7143 1.593 6.825.015 13.283-1.066 15.922.603-.513 3.606-1.21 12.542-1.21 13.24 0 21.773 12.946 25.01 18.537 3.236 5.59 3.236 13.24 0 18.537-3.237 5.296-11.475 3.236-19.42 9.415-7.944 6.179-20.891 6.474-24.422 4.414s-5.296-1.766-13.24-4.414c-6.356-2.118-5.199-7.552-3.826-10.004-2.746 2.452-9.474 6.944-14.417 5.296-4.943-1.647-5.002-5.786-4.414-7.65z" fill="#d9d9d9"/><path d="m265.716 188.667-.589-6.474-170.6582 39.134v5.002c14.6142-.588 45.3122-.176 52.3742.294 8.827.589 16.478 5.002 17.655 5.002 1.176 0 3.236 0 10.004-2.059 6.767-2.06 18.537-1.177 27.658-.883s37.957 5.885 40.605 6.179 4.708-.588 5.296-2.648c.471-1.648 11.966-29.718 17.655-43.547z" fill="#d9d9d9" stroke="#232e53" stroke-linejoin="round" stroke-width="1.76543"/><path d="m140.958 221.033c-14.359-1.648-37.761-.686-47.667 0 .8827-1.275 2.8247-4.001 3.5309-4.708.8827-.882 10.8871-13.829 17.0661-20.008 4.943-4.943 13.044-16.379 16.477-21.479 1.373-.393 4.767-1.177 7.356-1.177 3.237 0 11.475-.295 28.835 1.177 13.888 1.177 22.264 4.806 24.716 6.473.981-.589 3.884-2.001 7.651-2.942 4.707-1.177 13.24-2.06 28.247-1.766 12.005.236 30.698 3.237 38.545 4.708-1.373 2.942-4.826 10.475-7.65 17.066-2.825 6.591-10.004 23.147-13.241 30.601-3.923-.589-16.772-2.413-36.78-5.002-20.008-2.59-35.995 1.078-41.488 3.236-2.55-1.373-11.239-4.531-25.598-6.179z" fill="#fefefe"/><path d="m166.556 227.212c-2.55-1.373-11.239-4.531-25.598-6.179s-37.761-.686-47.667 0c.8827-1.275 2.8247-4.001 3.5309-4.708.8827-.882 10.8871-13.829 17.0661-20.008 4.943-4.943 13.044-16.379 16.477-21.479 1.373-.393 4.767-1.177 7.356-1.177 3.237 0 11.475-.295 28.835 1.177 13.888 1.177 22.264 4.806 24.716 6.473m-24.716 45.901c5.493-2.158 21.48-5.826 41.488-3.236 20.008 2.589 32.857 4.413 36.78 5.002 3.237-7.454 10.416-24.01 13.241-30.601 2.824-6.591 6.277-14.124 7.65-17.066-7.847-1.471-26.54-4.472-38.545-4.708-15.007-.294-23.54.589-28.247 1.766-3.767.941-6.67 2.353-7.651 2.942m-24.716 45.901c4.316-8.925 13.771-28.011 17.066-32.955 3.296-4.943 6.474-10.69 7.65-12.946" stroke="#232e53" stroke-linejoin="round" stroke-width="1.76543"/><path d="m224.816 169.542 2.06-7.062c.785-.196 3.001-.706 5.591-1.177 3.236-.588 7.356-5.59 7.356-4.707v5.296l-3.531 10.004-9.416 15.006z" fill="#6b8ede"/><path d="m238.94 114.814-6.473 21.773c.98-.686 3.472-2.412 5.59-3.825 2.119-1.412 5.787-2.55 7.356-2.942l3.531-11.77c.392-1.373.235-4.354-3.531-5.296s-5.885.981-6.473 2.06z" fill="#6b8ede"/><path d="m226.876 186.608-2.06-16.477c.295-.393 1.119-1.236 2.06-1.472.942-.235 1.177.099 1.177.295.196-.196.765-.589 1.471-.589s1.079.785 1.177 1.177c.392-.196 1.354-.529 2.06-.294s.883.686.883.883c0-.098.235-.236 1.177 0 .941.235 1.373 1.471 1.471 2.059z" fill="#f9b3ac"/><path d="m230.994 180.134-4.119 6.474-.883-7.945c.294-.098 1.236-.235 2.648 0 1.413.236 2.158 1.079 2.354 1.471z" fill="#232e53"/><path d="m224.816 169.542 2.06-7.062c.785-.196 3.001-.706 5.591-1.177 3.236-.588 7.356-5.59 7.356-4.707v5.296l-3.531 10.004-9.416 15.006z" stroke="#232e53" stroke-width="1.17695"/><path d="m238.94 114.814-6.473 21.773c.98-.686 3.472-2.412 5.59-3.825 2.119-1.412 5.787-2.55 7.356-2.942l3.531-11.77c.392-1.373.235-4.354-3.531-5.296s-5.885.981-6.473 2.06z" stroke="#232e53" stroke-width="1.17695"/><path d="m80.0502 136.294c-7.0617 2.354-6.8656 9.415-5.8848 12.652.7846.785 3.0601 2.707 5.8848 4.119 3.5309 1.766 10.2983 3.531 17.9485 5.297 7.6503 1.765 35.0143 3.236 47.9613 4.119 12.946.883 39.133-2.648 46.195-3.531 5.649-.706 21.774-3.433 29.13-4.708.196.687.588 2.413.588 3.825 0 1.766 2.06 3.826 7.356 3.826 4.237 0 9.023-3.727 10.887-5.591-.392 1.373-1.177 4.414-1.177 5.591 0 1.471 4.708 4.413 7.062 5.296s14.123 5.296 17.654 5.296 17.654-5.885 20.597-7.65c2.354-1.412 8.827-3.531 11.769-4.414-2.354-.784-7.356-2.883-8.533-5.002-1.471-2.648-3.825-11.181-12.063-19.419-8.239-8.239-27.365-6.179-34.426-5.002-5.65.941-12.162 9.219-14.712 13.24-2.943-.294-11.417-1.883-21.774-5.884-12.946-5.003-15.3-25.893-17.948-32.955-2.649-7.0619-16.184-27.6587-40.017-30.0126s-37.074 8.8272-40.311 20.5967c-3.236 11.7699-17.3597 37.3679-26.1868 40.3109z" fill="#fefefe"/><path d="m58.5707 156.891c4.9432-2.59 6.3752-13.83 6.4733-19.126-.2942-.687-.8827-2.413-.8827-3.825 0-1.766-.2942-5.885 0-7.356.2354-1.177.6865-4.414.8827-5.885-4.1193.687-13.0642 1.766-15.8889.589-3.5308-1.472-13.5349-2.06-20.0082-1.472-6.4732.589-14.4177 5.885-21.77368 14.124-7.3559604 8.239-5.59053 14.418-3.53086 17.36 1.64774 2.354 4.8059 1.569 6.17904.883 0 2.354 1.1181 7.12 5.5905 7.356 4.4724.235 8.9252-2.256 10.5926-3.531 1.1769 1.667 4.3547 5.178 7.6502 5.885 3.2955.706 10.5926-5.591 13.8292-8.828 1.5693 2.354 5.9436 6.415 10.8868 3.826z" fill="#fefefe"/><path d="m98.5872 54.7886c-2.5893 1.4124-6.7675 4.1194-8.5329 5.2963-1.1769-3.727-3.5897-13.4761-3.8251-22.6563-.2942-11.4753 9.4156-20.3025 11.1811-20.0083 1.4123.2354 17.4577 14.6139 25.3047 21.7737-3.237-2.2558-10.122-6.5321-11.77-5.5905-1.647.9415 2.06 7.2578 4.12 10.2983-2.256-1.5693-7.121-4.4724-8.533-3.5309-1.413.9416.98 6.081 2.354 8.533-1.275-1.0789-4.237-3.0601-5.885-2.3539-1.648.7061.294 3.2366 1.471 4.4135-.883.6866-3.295 2.4128-5.8848 3.8251z" fill="#f9b3ac"/><path d="m243.058 36.5459c2.119 10.1218 2.256 29.5219 2.06 37.9567-1.667-1.6673-5.767-6.0024-8.827-10.0041-3.06-4.0016-8.337-7.7483-10.593-9.1214.785-2.452 2.119-7.3559 1.177-7.3559-.941 0-4.119 2.7462-5.59 4.1193 2.059-2.3539 5.59-7.4737 3.236-9.1214-2.942-2.0597-9.71 3.5309-8.533 2.0597s5.591-10.0041 2.943-12.0638c-2.119-1.6477-10.691 3.6289-14.712 6.4732 7.258-8.0425 23.009-24.0687 27.953-23.8333 6.179.2942 8.238 8.2387 10.886 20.891z" fill="#f9b3ac"/><path d="m221.579 153.947c-15.006 3.531-52.904 10.122-84.446 8.239-39.4283-2.354-56.1998-5.591-66.7924-16.477-2.572-2.644-4.294-5.305-5.3555-7.945m156.5939 16.183c.883-4.119 5.12-13.947 15.006-20.302 12.358-7.945 21.186-6.473 22.068-7.356.706-.706 3.629-3.629 5.002-5.002m-42.076 32.66c-.588 1.864-.529 6.003 4.414 7.65 4.943 1.648 11.671-2.844 14.417-5.296-1.373 2.452-2.53 7.886 3.826 10.004 7.944 2.648 9.709 2.354 13.24 4.414s16.478 1.765 24.422-4.414c7.945-6.179 16.183-4.119 19.42-9.415 3.236-5.297 3.236-12.947 0-18.537-3.237-5.591-11.77-18.537-25.01-18.537-10.593 0-12.849.98-12.653 1.471m-179.4852-54.4344c-2.0597 2.9424-6.3556 10.7103-7.0617 18.2428-.6093 6.4985-2.0594 13.978-4.5441 20.8906m11.6058-39.1334c-3.0405-9.1214-7.5914-30.895-1.4712-45.0185 7.6502-17.65429 10.0041-17.36005 15.8889-16.18309 4.7075.94156 26.2855 19.41979 36.4855 28.54109 6.669-1.6673 22.362-4.8255 31.778-4.1193 11.769.8827 23.833 6.4733 29.718 0 5.885-6.4732 27.658-28.2469 39.428-27.95266 11.769.29424 20.891 47.07816 20.597 59.73046-.295 12.6522-2.354 19.4197 0 23.5391 2.354 4.1193 6.179 10.8868 8.238 19.7143 1.648 7.061-.098 13.731-1.177 16.183m-179.4852-54.4344c.932-1.4338 3.0483-4.1673 5.5905-6.2698m-17.1963 45.4032c-1.1153 3.104-2.4391 6.093-3.9889 8.828-3.7875 6.683-6.9002 14.717-3.59 22.95m7.5789-31.778c-9.8625-1.471-32.8831-1.765-46.065 8.828-16.4773 13.24-27.364144 28.246-23.83328 34.425 2.82469 4.944 6.27708 4.022 7.65018 2.943-.2942 1.765.1177 5.59 4.1193 6.767 4.0017 1.177 9.7099-2.059 12.0638-3.825.0981 1.962 1.5889 5.944 6.7675 6.179 5.1786.236 11.7696-5.983 14.4177-9.121.3923 2.158 2.707 6.297 8.8272 5.59 6.1201-.706 8.1992-13.633 8.4737-20.008m27.7176-79.1501c-1.0133.5067-2.0067 1.1951-2.9424 1.9689m0 0c-1.8635-6.6391-4.9432-21.8005-2.3539-29.333 3.2366-9.4157 6.179-14.4177 9.4156-14.1235 2.5893.2354 18.537 15.2023 26.187 22.6564-3.04-2.452-9.592-7.1795-11.475-6.4733s1.569 7.5522 3.531 10.8869c-1.668-1.7655-5.591-5.0021-7.945-3.8251-2.354 1.1769.589 6.3751 2.354 8.8271-1.569-1.1769-5.061-3.3543-6.473-2.6481-1.412.7061.785 3.6289 2.06 5.002m139.763 22.9506c.098-7.5521-.059-25.0691-1.471-34.7201-1.766-12.0638-4.119-24.7161-11.475-23.8334-5.885.7062-20.891 16.1832-27.659 23.8334 3.629-3.2367 11.711-9.0037 15.006-6.179 3.296 2.8247-1.569 9.6118-4.413 12.6522 2.256-1.8635 7.356-5.1197 9.71-3.2366 2.353 1.8831-1.177 6.8656-3.237 9.1214 1.373-1.4712 4.472-4.2959 5.885-3.8251 1.412.4708-.393 4.904-1.471 7.0617m-146.237 66.2037c-1.8438-.588-6.4259-1.942-10.0041-2.648s-8.7488-.883-10.8869-.883m20.891 7.65c-4.1194-.49-13.6527-1.471-18.8313-1.471s-7.454 0-7.9444 0m26.7757 5.296c-5.4925.295-17.1247.883-19.714.883s-3.8251.589-4.1194.883m151.8274-3.825c3.236-.393 10.592-1.177 14.123-1.177h8.239m-22.362 5.002c4.119-.098 13.182-.177 16.477.294 3.296.471 6.277 1.177 7.356 1.471m-23.833 1.766c3.727.294 12.005 1.236 15.3 2.648 3.296 1.412 5.1 2.55 5.591 2.942" stroke="#232e53" stroke-linecap="round" stroke-linejoin="round" stroke-width="2.35391"/><path d="m133.308 115.991c-9.415-.235-3.923 7.749 0 11.77.393-.196 1.354-.765 2.06-1.471.883-.883 6.767-5.002 8.239-5.885 1.471-.883 1.471-4.119-10.299-4.414z" fill="#f9b3ac"/><path d="m133.602 127.761v10.004m0-10.004c-1.863-2.06-5.59-6.709-5.59-8.827m5.59 8.827c1.766-1.57 6.179-5.179 9.71-7.062m-9.71 17.066s-1.765 4.708-4.119 5.59m4.119-5.59s1.766 4.708 3.825 5.59" stroke="#232e53" stroke-linecap="round" stroke-linejoin="round" stroke-width="1.76543"/><path d="m112.711 123.936c-5.414 2.589-14.4173-2.452-18.2424-5.297-.6865-.588-1.0003-1.353-2.6481-3.236-2.0596-2.354-1.4712-6.115-1.4712-8.827 0-4.708 3.5308-10.2987 4.1193-11.1814s5.5904-10.0041 16.1834-9.7099c10.592.2942 14.712 16.1833 14.417 23.5393-.294 7.356-5.59 11.475-12.358 14.712z" fill="#fefefe"/><path d="m180.975 125.407c6.591 2.589 18.831-5.983 24.127-10.593.295-.882.942-2.883 1.177-3.825.295-1.177-.588-7.062-1.177-9.415-.588-2.3543-7.356-14.4181-19.714-14.1239-12.358.2943-16.183 7.356-18.831 18.8309-2.648 11.476 6.179 15.889 14.418 19.126z" fill="#fefefe"/><path d="m124.776 107.165c0 8.125-5.494 16.771-11.181 16.771-12.358 0-15.595-8.646-15.595-16.771 0-8.1254 4.119-17.3603 14.418-17.3603 10.298 0 12.358 9.2349 12.358 17.3603z" fill="#232e53"/><path d="m203.925 98.3361c-2.648-4.1194-10.593-12.005-21.185-10.5926-13.241 1.7654-17.831 15.0065-17.066 22.6565.677 6.767 4.708 16.183 19.714 14.712 12.005-1.177 18.145-7.945 19.714-11.181m-110.9282 4.708c5.6886 4.217 19.0662 10.121 27.0702 0 4.959-6.272 4.857-14.713 2.059-21.4516-2.846-6.8562-8.482-11.9513-14.417-11.2093-9.4159 1.1769-13.7314 7.1598-14.7122 10.0041" stroke="#232e53" stroke-linecap="round" stroke-linejoin="round" stroke-width="1.76543"/><path d="m196.864 108.647c0 8.125-5.493 16.772-11.181 16.772-12.358 0-20.302-6.881-20.302-15.006 0-8.126 6.473-20.0087 16.771-20.0087 10.299 0 14.712 10.1177 14.712 18.2427z" fill="#232e53"/><g fill="#fefefe"><ellipse cx="111.916" cy="99.6503" rx="4.91745" ry="3.56696" transform="matrix(.68861533 -.72512683 .72512683 .68861533 -37.41018 112.182871)"/><ellipse cx="186.609" cy="100.198" rx="5.32714" ry="3.92864" transform="matrix(.68861533 -.72512683 .72512683 .68861533 -14.549077 166.515315)"/><ellipse cx="107.129" cy="107.762" rx="1.69615" ry="1.64532" transform="matrix(.68861533 -.72512683 .72512683 .68861533 -44.78279 111.237547)"/><ellipse cx="178.922" cy="108.938" rx="1.69615" ry="1.64532" transform="matrix(.68861533 -.72512683 .72512683 .68861533 -23.280299 163.662767)"/></g></svg>